<?xml version="1.0" encoding="UTF-8"?>
<!DOCTYPE svg PUBLIC "-//W3C//DTD SVG 1.1//EN" "http://www.w3.org/Graphics/SVG/1.1/DTD/svg11.dtd">
<svg xmlns="http://www.w3.org/2000/svg" version="1.1" width="1200px" height="482px" style="shape-rendering:geometricPrecision; text-rendering:geometricPrecision; image-rendering:optimizeQuality; fill-rule:evenodd; clip-rule:evenodd" xmlns:xlink="http://www.w3.org/1999/xlink">
<g><path style="opacity:0.951" fill="#000000" d="M 567.5,77.5 C 583.538,78.256 588.371,85.9227 582,100.5C 569.891,108.207 561.725,105.207 557.5,91.5C 558.171,84.8428 561.505,80.1762 567.5,77.5 Z"/></g>
<g><path style="opacity:0.962" fill="#000000" d="M 651.5,79.5 C 655.936,79.2101 660.27,79.7101 664.5,81C 665.861,82.5843 666.528,84.4176 666.5,86.5C 671.179,86.3342 675.845,86.5008 680.5,87C 681,87.5 681.5,88 682,88.5C 682.667,97.1667 682.667,105.833 682,114.5C 681.5,115 681,115.5 680.5,116C 664.833,116.667 649.167,116.667 633.5,116C 632.874,115.25 632.374,114.416 632,113.5C 631.06,104.73 631.393,96.0638 633,87.5C 637.401,86.5333 641.901,86.2 646.5,86.5C 646.492,82.8129 648.159,80.4796 651.5,79.5 Z M 651.5,83.5 C 654.85,83.335 658.183,83.5017 661.5,84C 661.957,84.414 662.291,84.914 662.5,85.5C 658.5,86.8333 654.5,86.8333 650.5,85.5C 650.863,84.8165 651.196,84.1499 651.5,83.5 Z"/></g>
<g><path style="opacity:0.983" fill="#000000" d="M 548.5,100.5 C 562.054,100.447 567.054,106.947 563.5,120C 563.826,122.484 564.826,124.651 566.5,126.5C 573.319,120.181 579.986,113.681 586.5,107C 591.834,103.292 596.334,104.125 600,109.5C 600.996,113.207 600.33,116.541 598,119.5C 588.196,128.303 578.696,137.47 569.5,147C 566.332,149.633 562.998,149.967 559.5,148C 555.957,143.084 552.79,137.917 550,132.5C 544.789,138.042 539.956,143.875 535.5,150C 541.325,152.745 546.992,155.745 552.5,159C 554.353,161.04 555.686,163.373 556.5,166C 553.571,176.789 550.237,187.455 546.5,198C 553.492,198.5 560.492,198.666 567.5,198.5C 567.179,186.919 567.512,175.419 568.5,164C 581.162,163.5 593.829,163.333 606.5,163.5C 606.176,148.255 606.509,133.089 607.5,118C 640.832,117.5 674.165,117.333 707.5,117.5C 707.5,169.833 707.5,222.167 707.5,274.5C 635.5,274.5 563.5,274.5 491.5,274.5C 491.5,258.5 491.5,242.5 491.5,226.5C 492.5,226.5 493.5,226.5 494.5,226.5C 494.248,223.68 494.748,221.014 496,218.5C 501.711,210.245 507.544,202.079 513.5,194C 510.29,182.291 507.457,170.458 505,158.5C 504.348,155.406 504.682,152.406 506,149.5C 516.465,129.866 530.632,113.532 548.5,100.5 Z M 525.5,164.5 C 530.289,165.391 534.289,167.558 537.5,171C 535.421,178.151 533.421,185.317 531.5,192.5C 531.486,194.593 532.152,196.426 533.5,198C 532.552,198.483 531.552,198.649 530.5,198.5C 528.738,187.855 526.405,177.355 523.5,167C 524.381,166.292 525.047,165.458 525.5,164.5 Z M 525.5,204.5 C 526.492,211.648 526.825,218.981 526.5,226.5C 521.489,226.666 516.489,226.499 511.5,226C 516.312,218.862 520.979,211.695 525.5,204.5 Z"/></g>
<g><path style="opacity:0.949" fill="#000000" d="M 738.5,262.5 C 833.833,262.5 929.167,262.5 1024.5,262.5C 1024.5,269.167 1024.5,275.833 1024.5,282.5C 929.167,282.5 833.833,282.5 738.5,282.5C 738.5,275.833 738.5,269.167 738.5,262.5 Z"/></g>
<g><path style="opacity:0.949" fill="#000000" d="M 174.5,264.5 C 269.833,264.5 365.167,264.5 460.5,264.5C 460.5,271.167 460.5,277.833 460.5,284.5C 365.167,284.5 269.833,284.5 174.5,284.5C 174.5,277.833 174.5,271.167 174.5,264.5 Z"/></g>
<g><path style="opacity:0.945" fill="#000000" d="M 521.5,330.5 C 527.5,330.5 533.5,330.5 539.5,330.5C 539.333,344.171 539.5,357.837 540,371.5C 548.113,363.021 557.946,360.188 569.5,363C 581.155,367.444 587.655,375.944 589,388.5C 591.449,402.923 588.782,416.256 581,428.5C 570.087,439.263 557.587,441.43 543.5,435C 542,433.5 540.5,432 539,430.5C 538.697,432.888 537.863,435.055 536.5,437C 531.511,437.499 526.511,437.666 521.5,437.5C 521.5,401.833 521.5,366.167 521.5,330.5 Z M 553.5,376.5 C 563.262,376.76 568.762,381.76 570,391.5C 571.44,400.941 570.106,409.941 566,418.5C 558.016,426.119 549.683,426.453 541,419.5C 539.876,413.605 539.376,407.605 539.5,401.5C 539.667,396.167 539.833,390.833 540,385.5C 543.528,380.834 548.028,377.834 553.5,376.5 Z"/></g>
<g><path style="opacity:0.919" fill="#000000" d="M 402.5,333.5 C 409.5,333.5 416.5,333.5 423.5,333.5C 423.667,357.502 423.5,381.502 423,405.5C 421.599,427.571 409.932,438.571 388,438.5C 382.813,438.34 377.646,438.007 372.5,437.5C 372.814,432.145 373.814,426.978 375.5,422C 379.225,421.24 382.892,421.407 386.5,422.5C 393.16,422.421 397.993,419.421 401,413.5C 402.464,386.884 402.964,360.218 402.5,333.5 Z"/></g>
<g><path style="opacity:0.94" fill="#000000" d="M 596.5,333.5 C 622.5,333.5 648.5,333.5 674.5,333.5C 674.79,337.936 674.29,342.27 673,346.5C 655.5,371.333 638,396.167 620.5,421C 638.164,421.5 655.83,421.667 673.5,421.5C 673.5,426.833 673.5,432.167 673.5,437.5C 646.833,437.5 620.167,437.5 593.5,437.5C 593.133,433.033 593.633,428.7 595,424.5C 612.5,399.667 630,374.833 647.5,350C 630.503,349.5 613.503,349.333 596.5,349.5C 596.5,344.167 596.5,338.833 596.5,333.5 Z"/></g>
<g><path style="opacity:0.926" fill="#000000" d="M 462.5,362.5 C 496.063,360.231 511.23,375.898 508,409.5C 503.837,428.913 491.837,438.579 472,438.5C 447.831,437.496 435.664,424.829 435.5,400.5C 435.225,380.996 444.225,368.329 462.5,362.5 Z M 467.5,376.5 C 480.569,375.4 487.736,381.4 489,394.5C 490.245,402.941 488.911,410.941 485,418.5C 475.713,426.699 466.713,426.366 458,417.5C 453.749,406.973 453.416,396.306 457,385.5C 459.489,381.168 462.989,378.168 467.5,376.5 Z"/></g>
<g><path style="opacity:0.929" fill="#000000" d="M 705.5,362.5 C 734.647,359.483 748.147,372.483 746,401.5C 729.911,402.491 713.744,402.825 697.5,402.5C 698.005,417.51 705.672,424.676 720.5,424C 726.413,422.373 732.079,420.206 737.5,417.5C 738.167,417.667 738.833,417.833 739.5,418C 741.598,420.854 743.931,423.521 746.5,426C 738.484,435.015 728.318,439.182 716,438.5C 693.834,438.005 681.5,426.671 679,404.5C 677.042,383.368 685.876,369.368 705.5,362.5 Z M 711.5,375.5 C 722.897,374.902 728.897,380.236 729.5,391.5C 718.828,391.667 708.161,391.5 697.5,391C 699.279,383.062 703.945,377.895 711.5,375.5 Z"/></g>
<g><path style="opacity:0.927" fill="#000000" d="M 781.5,362.5 C 810.628,359.633 824.295,372.633 822.5,401.5C 806.177,402.333 789.844,402.833 773.5,403C 775.034,417.54 783.034,424.54 797.5,424C 802.389,422.557 807.055,420.557 811.5,418C 816.622,418.528 820.289,421.361 822.5,426.5C 814.544,435.379 804.544,439.379 792.5,438.5C 767.784,437.477 755.451,424.477 755.5,399.5C 755.589,380.948 764.255,368.614 781.5,362.5 Z M 788.5,375.5 C 799.872,374.875 805.872,380.208 806.5,391.5C 795.833,391.5 785.167,391.5 774.5,391.5C 775.495,382.787 780.161,377.453 788.5,375.5 Z"/></g>
</svg>
